<mxfile host="app.diagrams.net" modified="2022-02-27T11:35:01.413Z" agent="5.0 (Windows NT 10.0; Win64; x64) AppleWebKit/537.36 (KHTML, like Gecko) Chrome/98.0.4758.102 Safari/537.36" etag="vQPR7zRKnRqYkXt7HGNM" version="16.6.1" type="github">
  <diagram id="C5RBs43oDa-KdzZeNtuy" name="Page-1">
    <mxGraphModel dx="1208" dy="1006" grid="1" gridSize="10" guides="1" tooltips="1" connect="1" arrows="1" fold="1" page="1" pageScale="1" pageWidth="827" pageHeight="1169" math="0" shadow="0">
      <root>
        <mxCell id="WIyWlLk6GJQsqaUBKTNV-0" />
        <mxCell id="WIyWlLk6GJQsqaUBKTNV-1" parent="WIyWlLk6GJQsqaUBKTNV-0" />
        <mxCell id="_Vl2jHAgJF8wlNKX7y7R-0" value="" style="rounded=0;html=1;jettySize=auto;orthogonalLoop=1;fontSize=11;endArrow=block;endFill=0;endSize=8;strokeWidth=1;shadow=0;labelBackgroundColor=none;edgeStyle=orthogonalEdgeStyle;" edge="1" parent="WIyWlLk6GJQsqaUBKTNV-1" source="_Vl2jHAgJF8wlNKX7y7R-1" target="_Vl2jHAgJF8wlNKX7y7R-3">
          <mxGeometry relative="1" as="geometry">
            <mxPoint x="230" y="180" as="targetPoint" />
          </mxGeometry>
        </mxCell>
        <mxCell id="_Vl2jHAgJF8wlNKX7y7R-1" value="Inicio" style="rounded=1;whiteSpace=wrap;html=1;fontSize=12;glass=0;strokeWidth=1;shadow=0;" vertex="1" parent="WIyWlLk6GJQsqaUBKTNV-1">
          <mxGeometry x="170" y="90" width="120" height="40" as="geometry" />
        </mxCell>
        <mxCell id="_Vl2jHAgJF8wlNKX7y7R-2" value="Fin" style="rounded=1;whiteSpace=wrap;html=1;fontSize=12;glass=0;strokeWidth=1;shadow=0;" vertex="1" parent="WIyWlLk6GJQsqaUBKTNV-1">
          <mxGeometry x="170" y="1090" width="120" height="40" as="geometry" />
        </mxCell>
        <mxCell id="_Vl2jHAgJF8wlNKX7y7R-3" value="&#xa;&#xa;&lt;span style=&quot;color: rgb(0, 0, 0); font-family: helvetica; font-size: 12px; font-style: normal; font-weight: 400; letter-spacing: normal; text-align: center; text-indent: 0px; text-transform: none; word-spacing: 0px; background-color: rgb(248, 249, 250); display: inline; float: none;&quot;&gt;Escribir: &quot;Introduzca valor (-1 para terminar)&quot;&lt;/span&gt;&#xa;&#xa;" style="shape=parallelogram;perimeter=parallelogramPerimeter;whiteSpace=wrap;html=1;fixedSize=1;" vertex="1" parent="WIyWlLk6GJQsqaUBKTNV-1">
          <mxGeometry x="165" y="170" width="130" height="60" as="geometry" />
        </mxCell>
        <mxCell id="_Vl2jHAgJF8wlNKX7y7R-4" value="Añadir el valor a listaNotas" style="rounded=0;whiteSpace=wrap;html=1;" vertex="1" parent="WIyWlLk6GJQsqaUBKTNV-1">
          <mxGeometry x="170" y="280" width="120" height="60" as="geometry" />
        </mxCell>
        <mxCell id="_Vl2jHAgJF8wlNKX7y7R-5" value="" style="rounded=0;html=1;jettySize=auto;orthogonalLoop=1;fontSize=11;endArrow=block;endFill=0;endSize=8;strokeWidth=1;shadow=0;labelBackgroundColor=none;edgeStyle=orthogonalEdgeStyle;exitX=0.5;exitY=1;exitDx=0;exitDy=0;entryX=0.5;entryY=0;entryDx=0;entryDy=0;" edge="1" parent="WIyWlLk6GJQsqaUBKTNV-1" source="_Vl2jHAgJF8wlNKX7y7R-3" target="_Vl2jHAgJF8wlNKX7y7R-4">
          <mxGeometry relative="1" as="geometry">
            <mxPoint x="370" y="489.9999999999999" as="sourcePoint" />
            <mxPoint x="260" y="521" as="targetPoint" />
          </mxGeometry>
        </mxCell>
        <mxCell id="_Vl2jHAgJF8wlNKX7y7R-6" value="¿valor diferente a -1?" style="rhombus;whiteSpace=wrap;html=1;" vertex="1" parent="WIyWlLk6GJQsqaUBKTNV-1">
          <mxGeometry x="183.75" y="380" width="92.5" height="95" as="geometry" />
        </mxCell>
        <mxCell id="_Vl2jHAgJF8wlNKX7y7R-7" value="" style="rounded=0;html=1;jettySize=auto;orthogonalLoop=1;fontSize=11;endArrow=block;endFill=0;endSize=8;strokeWidth=1;shadow=0;labelBackgroundColor=none;edgeStyle=orthogonalEdgeStyle;exitX=0.5;exitY=1;exitDx=0;exitDy=0;entryX=0.5;entryY=0;entryDx=0;entryDy=0;" edge="1" parent="WIyWlLk6GJQsqaUBKTNV-1" source="_Vl2jHAgJF8wlNKX7y7R-4" target="_Vl2jHAgJF8wlNKX7y7R-6">
          <mxGeometry relative="1" as="geometry">
            <mxPoint x="340" y="594.9999999999999" as="sourcePoint" />
            <mxPoint x="230" y="610" as="targetPoint" />
          </mxGeometry>
        </mxCell>
        <mxCell id="_Vl2jHAgJF8wlNKX7y7R-8" value="True" style="edgeLabel;html=1;align=center;verticalAlign=middle;resizable=0;points=[];" vertex="1" connectable="0" parent="WIyWlLk6GJQsqaUBKTNV-1">
          <mxGeometry x="298.25" y="440.5" as="geometry" />
        </mxCell>
        <mxCell id="_Vl2jHAgJF8wlNKX7y7R-9" value="Recorrer la lista y calcular la suma de los valores" style="rounded=0;whiteSpace=wrap;html=1;" vertex="1" parent="WIyWlLk6GJQsqaUBKTNV-1">
          <mxGeometry x="172.5" y="520" width="115" height="50" as="geometry" />
        </mxCell>
        <mxCell id="_Vl2jHAgJF8wlNKX7y7R-10" value="False" style="rounded=0;html=1;jettySize=auto;orthogonalLoop=1;fontSize=11;endArrow=block;endFill=0;endSize=8;strokeWidth=1;shadow=0;labelBackgroundColor=none;edgeStyle=orthogonalEdgeStyle;exitX=0.5;exitY=1;exitDx=0;exitDy=0;entryX=0.5;entryY=0;entryDx=0;entryDy=0;" edge="1" parent="WIyWlLk6GJQsqaUBKTNV-1" source="_Vl2jHAgJF8wlNKX7y7R-6" target="_Vl2jHAgJF8wlNKX7y7R-9">
          <mxGeometry x="-0.323" y="25" relative="1" as="geometry">
            <mxPoint x="350" y="704.9999999999999" as="sourcePoint" />
            <mxPoint x="510" y="740" as="targetPoint" />
            <mxPoint as="offset" />
          </mxGeometry>
        </mxCell>
        <mxCell id="_Vl2jHAgJF8wlNKX7y7R-11" value="Escribir en pantalla: &quot;Media: &quot; y la división entre la sumaTotal y numValores" style="shape=parallelogram;perimeter=parallelogramPerimeter;whiteSpace=wrap;html=1;fixedSize=1;" vertex="1" parent="WIyWlLk6GJQsqaUBKTNV-1">
          <mxGeometry x="140" y="610" width="180" height="80" as="geometry" />
        </mxCell>
        <mxCell id="_Vl2jHAgJF8wlNKX7y7R-12" value="" style="rounded=0;html=1;jettySize=auto;orthogonalLoop=1;fontSize=11;endArrow=block;endFill=0;endSize=8;strokeWidth=1;shadow=0;labelBackgroundColor=none;edgeStyle=orthogonalEdgeStyle;entryX=0.5;entryY=0;entryDx=0;entryDy=0;exitX=0.5;exitY=1;exitDx=0;exitDy=0;" edge="1" parent="WIyWlLk6GJQsqaUBKTNV-1" source="_Vl2jHAgJF8wlNKX7y7R-9" target="_Vl2jHAgJF8wlNKX7y7R-11">
          <mxGeometry relative="1" as="geometry">
            <mxPoint x="360" y="809.9999999999999" as="sourcePoint" />
            <mxPoint x="360.07000000000005" y="881.32" as="targetPoint" />
          </mxGeometry>
        </mxCell>
        <mxCell id="_Vl2jHAgJF8wlNKX7y7R-13" value="" style="rounded=0;html=1;jettySize=auto;orthogonalLoop=1;fontSize=11;endArrow=block;endFill=0;endSize=8;strokeWidth=1;shadow=0;labelBackgroundColor=none;edgeStyle=orthogonalEdgeStyle;exitX=0.5;exitY=1;exitDx=0;exitDy=0;entryX=0.5;entryY=0;entryDx=0;entryDy=0;" edge="1" parent="WIyWlLk6GJQsqaUBKTNV-1" source="_Vl2jHAgJF8wlNKX7y7R-11" target="_Vl2jHAgJF8wlNKX7y7R-14">
          <mxGeometry relative="1" as="geometry">
            <mxPoint x="360" y="959.9999999999999" as="sourcePoint" />
            <mxPoint x="233" y="780" as="targetPoint" />
          </mxGeometry>
        </mxCell>
        <mxCell id="_Vl2jHAgJF8wlNKX7y7R-14" value="Recorrer la lista de notas y aumentar contador si supera el valor 10" style="rounded=0;whiteSpace=wrap;html=1;" vertex="1" parent="WIyWlLk6GJQsqaUBKTNV-1">
          <mxGeometry x="170" y="740" width="120" height="60" as="geometry" />
        </mxCell>
        <mxCell id="_Vl2jHAgJF8wlNKX7y7R-15" value="Calcular el porcentaje de notas que superan el valor 10" style="rounded=0;whiteSpace=wrap;html=1;" vertex="1" parent="WIyWlLk6GJQsqaUBKTNV-1">
          <mxGeometry x="170" y="850" width="120" height="60" as="geometry" />
        </mxCell>
        <mxCell id="_Vl2jHAgJF8wlNKX7y7R-17" value="Escribir en pantalla: &quot;Media: &quot; y la división entre la sumaTotal y numValores y el porcentaje de notas&amp;gt;10" style="shape=parallelogram;perimeter=parallelogramPerimeter;whiteSpace=wrap;html=1;fixedSize=1;" vertex="1" parent="WIyWlLk6GJQsqaUBKTNV-1">
          <mxGeometry x="140" y="960" width="180" height="80" as="geometry" />
        </mxCell>
        <mxCell id="_Vl2jHAgJF8wlNKX7y7R-18" value="" style="rounded=0;html=1;jettySize=auto;orthogonalLoop=1;fontSize=11;endArrow=block;endFill=0;endSize=8;strokeWidth=1;shadow=0;labelBackgroundColor=none;edgeStyle=orthogonalEdgeStyle;entryX=0.5;entryY=0;entryDx=0;entryDy=0;exitX=0.5;exitY=1;exitDx=0;exitDy=0;" edge="1" parent="WIyWlLk6GJQsqaUBKTNV-1" source="_Vl2jHAgJF8wlNKX7y7R-14" target="_Vl2jHAgJF8wlNKX7y7R-15">
          <mxGeometry relative="1" as="geometry">
            <mxPoint x="370" y="840" as="sourcePoint" />
            <mxPoint x="370" y="890" as="targetPoint" />
            <Array as="points">
              <mxPoint x="230" y="820" />
            </Array>
          </mxGeometry>
        </mxCell>
        <mxCell id="_Vl2jHAgJF8wlNKX7y7R-19" value="" style="rounded=0;html=1;jettySize=auto;orthogonalLoop=1;fontSize=11;endArrow=block;endFill=0;endSize=8;strokeWidth=1;shadow=0;labelBackgroundColor=none;edgeStyle=orthogonalEdgeStyle;exitX=0.5;exitY=1;exitDx=0;exitDy=0;" edge="1" parent="WIyWlLk6GJQsqaUBKTNV-1" source="_Vl2jHAgJF8wlNKX7y7R-15" target="_Vl2jHAgJF8wlNKX7y7R-17">
          <mxGeometry relative="1" as="geometry">
            <mxPoint x="510" y="980" as="sourcePoint" />
            <mxPoint x="370" y="1045" as="targetPoint" />
          </mxGeometry>
        </mxCell>
        <mxCell id="_Vl2jHAgJF8wlNKX7y7R-20" value="" style="rounded=0;html=1;jettySize=auto;orthogonalLoop=1;fontSize=11;endArrow=block;endFill=0;endSize=8;strokeWidth=1;shadow=0;labelBackgroundColor=none;edgeStyle=orthogonalEdgeStyle;entryX=0.5;entryY=0;entryDx=0;entryDy=0;exitX=0.5;exitY=1;exitDx=0;exitDy=0;" edge="1" parent="WIyWlLk6GJQsqaUBKTNV-1" source="_Vl2jHAgJF8wlNKX7y7R-17" target="_Vl2jHAgJF8wlNKX7y7R-2">
          <mxGeometry relative="1" as="geometry">
            <mxPoint x="180" y="1080" as="sourcePoint" />
            <mxPoint x="370" y="1000" as="targetPoint" />
          </mxGeometry>
        </mxCell>
      </root>
    </mxGraphModel>
  </diagram>
</mxfile>
